<svg width="150" height="150" viewBox="0 0 150 150" fill="none" xmlns="http://www.w3.org/2000/svg">
<path d="M46.5187 33.4375C50.5125 33.4375 54.2063 33.75 57.5813 34.675C60.9625 35.2937 63.7313 36.5313 66.1875 38.075C68.65 39.625 70.4938 41.7875 71.7188 44.5688C72.95 47.35 73.5687 50.7562 73.5687 54.4625C73.5687 58.7937 72.6438 62.5 70.4938 65.2812C68.65 68.0687 65.575 70.5375 61.8875 72.3938C67.1125 73.9438 71.1062 76.725 73.5687 80.4375C76.025 84.1437 77.5625 88.7812 77.5625 94.0375C77.5625 98.3687 76.6375 102.075 75.1 105.169C73.5687 108.262 71.1063 111.044 68.3375 112.9C65.3298 114.89 62.0052 116.352 58.5063 117.225C54.8188 118.156 51.1313 118.775 47.4438 118.775H6.25V33.4375H46.5187ZM44.0562 68.0625C47.4375 68.0625 50.2062 67.1375 52.3562 65.5937C54.5062 64.05 55.4313 61.2625 55.4313 57.8625C55.4313 56.0063 55.1187 54.1563 54.5062 52.9188C53.8937 51.6813 52.9688 50.75 51.7438 49.825C50.5125 49.2063 49.2812 48.5875 47.7437 48.2812C46.2062 47.9687 44.675 47.9688 42.825 47.9688H25V68.0687H44.0625L44.0562 68.0625ZM44.9813 104.55C46.825 104.55 48.6687 104.237 50.2062 103.931C51.7437 103.619 53.2812 103.006 54.5062 102.075C55.7587 101.17 56.8064 100.012 57.5813 98.675C58.1938 97.1312 58.8125 95.275 58.8125 93.1125C58.8125 88.7813 57.5812 85.6875 55.125 83.525C52.6625 81.6687 49.2812 80.7437 45.2875 80.7437H25V104.556L44.9813 104.55ZM104.306 104.237C106.762 106.712 110.45 107.95 115.369 107.95C118.75 107.95 121.825 107.025 124.281 105.481C126.744 103.625 128.281 101.769 128.894 99.9188H143.956C141.494 107.331 137.806 112.587 132.894 115.994C127.969 119.081 122.131 120.938 115.062 120.938C110.54 120.951 106.055 120.112 101.844 118.463C98.0542 117.041 94.6748 114.705 92.0062 111.662C89.1519 108.816 87.0419 105.311 85.8625 101.456C84.325 97.4375 83.7062 93.1125 83.7062 88.1625C83.7062 83.525 84.325 79.2 85.8625 75.175C87.3433 71.3023 89.5328 67.7394 92.3187 64.6688C95.1257 61.7865 98.4642 59.4752 102.15 57.8625C106.254 56.2129 110.639 55.3725 115.062 55.3875C120.287 55.3875 124.9 56.3188 128.894 58.4813C132.894 60.6438 135.962 63.1187 138.419 66.8312C140.881 70.2312 142.731 74.25 143.956 78.5813C144.569 82.9063 144.875 87.2375 144.569 92.1813H100C100 97.1313 101.844 101.769 104.306 104.244V104.237ZM123.669 71.775C121.519 69.6125 118.137 68.375 114.137 68.375C111.375 68.375 109.219 69 107.375 69.925C105.531 70.85 104.306 72.0875 103.075 73.325C101.942 74.5198 101.191 76.0258 100.919 77.65C100.612 79.2 100.306 80.4375 100.306 81.6688H127.969C127.356 77.0313 125.819 73.9438 123.669 71.775ZM96.6187 39.3125H131.044V47.6625H96.625V39.3125H96.6187Z" fill="#141414"/>
</svg>
