<svg width="151" height="150" viewBox="0 0 151 150" fill="none" xmlns="http://www.w3.org/2000/svg">
<path d="M141.291 108.44C139.761 106.811 134.362 101.994 124.436 95.6221C114.437 89.1944 107.063 85.1866 104.948 84.252C104.762 84.1693 104.556 84.139 104.354 84.1643C104.152 84.1896 103.96 84.2696 103.8 84.3956C100.392 87.0528 94.656 91.9337 94.3484 92.1973C92.3621 93.8995 92.3621 93.8995 90.7361 93.3692C87.8767 92.4317 78.9939 87.7149 71.2537 79.9571C63.5135 72.1993 58.5535 63.0967 57.616 60.2403C57.0799 58.6114 57.0799 58.6114 58.7879 56.6251C59.0515 56.3174 63.9353 50.5811 66.5926 47.1768C66.7186 47.0165 66.7985 46.8249 66.8238 46.6225C66.8491 46.4202 66.8188 46.2148 66.7361 46.0284C65.8015 43.9102 61.7937 36.5391 55.366 26.5401C48.9851 16.6172 44.1746 11.2178 42.5457 9.68854C42.3962 9.54748 42.2114 9.44936 42.0109 9.4045C41.8103 9.35964 41.6014 9.36972 41.406 9.43366C35.7121 11.3904 30.2184 13.8871 24.9998 16.8897C19.962 19.8183 15.1925 23.1859 10.7468 26.9532C10.5917 27.0851 10.4753 27.2568 10.4103 27.4498C10.3453 27.6429 10.334 27.85 10.3777 28.0489C10.99 30.9024 13.9168 42.8145 22.9988 59.3145C32.2654 76.1544 38.6873 84.7823 52.2957 98.3438C65.9041 111.905 74.8045 118.714 91.6619 127.981C108.162 137.063 120.08 139.992 122.928 140.599C123.127 140.642 123.334 140.631 123.528 140.566C123.721 140.501 123.893 140.384 124.026 140.23C127.793 135.784 131.159 131.015 134.087 125.977C137.089 120.758 139.585 115.264 141.543 109.57C141.605 109.377 141.615 109.169 141.571 108.971C141.526 108.772 141.43 108.588 141.291 108.44Z" fill="black"/>
</svg>
