<svg width="30" height="58" viewBox="0 0 30 58" fill="none" xmlns="http://www.w3.org/2000/svg">
<path d="M5.12704 28.5722L29.3767 53.4929C29.5763 53.6937 29.7342 53.9322 29.8411 54.1944C29.948 54.4566 30.0018 54.7375 29.9995 55.0206C29.9971 55.3038 29.9386 55.5837 29.8274 55.8441C29.7161 56.1045 29.5544 56.3403 29.3514 56.5378C29.1484 56.7353 28.9083 56.8906 28.645 56.9946C28.3816 57.0987 28.1002 57.1495 27.8171 57.1441C27.5339 57.1388 27.2547 57.0773 26.9955 56.9632C26.7363 56.8492 26.5022 56.6849 26.3069 56.4798L0.606638 30.0656C0.217644 29.6658 -2.44911e-06 29.13 -2.49787e-06 28.5722C-2.54664e-06 28.0143 0.217644 27.4785 0.606638 27.0787L26.3069 0.664502C26.5022 0.459434 26.7363 0.295136 26.9955 0.18111C27.2547 0.0670837 27.5339 0.00559698 27.8171 0.000206427C28.1002 -0.00518413 28.3816 0.0456278 28.645 0.149705C28.9083 0.253782 29.1484 0.409053 29.3514 0.606538C29.5544 0.804024 29.7161 1.0398 29.8274 1.30022C29.9386 1.56064 29.9971 1.84054 29.9995 2.12372C30.0018 2.40689 29.948 2.68772 29.8411 2.94996C29.7342 3.21219 29.5763 3.45062 29.3767 3.65145L5.12704 28.5722Z" fill="white"/>
</svg>
