<svg width="179" height="68" viewBox="0 0 179 68" fill="none" xmlns="http://www.w3.org/2000/svg">
<path d="M16.3006 0.50708V4.10627H4.46831V32H0.374237V0.50708H16.3006Z" fill="white"/>
<path d="M37.5235 20.7975V22.2822H18.4029C18.7628 24.2317 19.6326 25.8364 21.0123 27.0961C22.392 28.3558 24.2065 28.9856 26.456 28.9856C28.2856 28.9856 29.7553 28.6257 30.865 27.9059C31.9748 27.1561 32.7246 26.3612 33.1145 25.5214L33.8344 25.9263L36.3988 27.321C35.439 29.0606 34.0893 30.4253 32.3497 31.4151C30.6401 32.4049 28.6755 32.8998 26.456 32.8998C22.8269 32.8998 19.8875 31.76 17.638 29.4805C15.4185 27.1711 14.3088 24.2767 14.3088 20.7975C14.3088 17.2883 15.4035 14.3789 17.593 12.0695C19.8125 9.75999 22.6469 8.60525 26.0961 8.60525C29.5753 8.60525 32.3947 9.80498 34.5542 12.2044C36.6837 14.6039 37.6735 17.4682 37.5235 20.7975ZM18.5828 18.368H33.2945C33.0246 16.5385 32.1997 15.0988 30.8201 14.049C29.4404 12.9993 27.8657 12.4744 26.0961 12.4744C24.1766 12.4744 22.5119 13.0742 21.1022 14.274C19.6926 15.4437 18.8528 16.8084 18.5828 18.368Z" fill="white"/>
<path d="M42.5364 40.9979V9.50505H46.5855V11.7095C48.865 9.64002 51.5643 8.60525 54.6836 8.60525C58.0429 8.60525 60.9072 9.78998 63.2767 12.1594C65.6462 14.5289 66.8309 17.3933 66.8309 20.7525C66.8309 24.1117 65.6462 26.9761 63.2767 29.3456C60.9072 31.715 58.0429 32.8998 54.6836 32.8998C51.5643 32.8998 48.865 31.865 46.5855 29.7955V40.9979H42.5364ZM60.3974 26.4662C61.987 24.8766 62.7818 22.972 62.7818 20.7525C62.7818 18.533 61.987 16.6284 60.3974 15.0388C58.8077 13.4492 56.9031 12.6543 54.6836 12.6543C52.4641 12.6543 50.5596 13.4492 48.9699 15.0388C47.3803 16.6284 46.5855 18.533 46.5855 20.7525C46.5855 22.972 47.3803 24.8766 48.9699 26.4662C50.5596 28.0559 52.4641 28.8507 54.6836 28.8507C56.9031 28.8507 58.8077 28.0559 60.3974 26.4662Z" fill="white"/>
<path d="M88.8548 9.50505H94.8835V32H91.0143V13.1492L85.2106 25.8364H81.2515L75.4479 13.1492V32H71.5337V9.50505H77.6074L83.0511 21.8323L88.8548 9.50505Z" fill="white"/>
<path d="M119.613 32V29.7955C117.334 31.865 114.634 32.8998 111.515 32.8998C108.156 32.8998 105.291 31.715 102.922 29.3456C100.552 26.9761 99.3677 24.1117 99.3677 20.7525C99.3677 17.3933 100.552 14.5289 102.922 12.1594C105.291 9.78998 108.156 8.60525 111.515 8.60525C114.634 8.60525 117.334 9.64002 119.613 11.7095V9.50505H123.662V32H119.613ZM103.417 20.7525C103.417 22.972 104.212 24.8766 105.801 26.4662C107.391 28.0559 109.295 28.8507 111.515 28.8507C113.734 28.8507 115.639 28.0559 117.229 26.4662C118.818 24.8766 119.613 22.972 119.613 20.7525C119.613 18.533 118.818 16.6284 117.229 15.0388C115.639 13.4492 113.734 12.6543 111.515 12.6543C109.295 12.6543 107.391 13.4492 105.801 15.0388C104.212 16.6284 103.417 18.533 103.417 20.7525Z" fill="white"/>
<path d="M144.572 32V22.777H132.875V32H128.825V9.50505H132.875V18.728H144.572V9.50505H148.621V32H144.572Z" fill="white"/>
<path d="M22.3293 67V53.368H4.5133V67H0.374237V35.5071H4.5133V49.139H22.3293V35.5071H26.4683V67H22.3293Z" fill="white"/>
<path d="M31.6633 55.7525C31.6633 52.3933 32.848 49.5289 35.2175 47.1594C37.5869 44.79 40.4513 43.6053 43.8105 43.6053C47.1698 43.6053 50.0341 44.79 52.4036 47.1594C54.773 49.5289 55.9578 52.3933 55.9578 55.7525C55.9578 59.1117 54.773 61.9761 52.4036 64.3456C50.0341 66.715 47.1698 67.8998 43.8105 67.8998C40.4513 67.8998 37.5869 66.715 35.2175 64.3456C32.848 61.9761 31.6633 59.1117 31.6633 55.7525ZM35.7123 55.7525C35.7123 57.972 36.5072 59.8766 38.0968 61.4662C39.6864 63.0559 41.591 63.8507 43.8105 63.8507C46.03 63.8507 47.9346 63.0559 49.5242 61.4662C51.1139 59.8766 51.9087 57.972 51.9087 55.7525C51.9087 53.533 51.1139 51.6284 49.5242 50.0388C47.9346 48.4492 46.03 47.6543 43.8105 47.6543C41.591 47.6543 39.6864 48.4492 38.0968 50.0388C36.5072 51.6284 35.7123 53.533 35.7123 55.7525Z" fill="white"/>
<path d="M73.5885 67H60.9014V44.505H73.5885C75.4781 44.505 77.0527 45.0899 78.3124 46.2597C79.6022 47.4294 80.247 48.929 80.247 50.7586C80.247 53.0081 79.2422 54.6727 77.2327 55.7525C79.2422 56.8623 80.247 58.5269 80.247 60.7464C80.247 62.576 79.6022 64.0756 78.3124 65.2454C77.0527 66.4151 75.4781 67 73.5885 67ZM64.9505 53.728H73.5885C74.3383 53.728 74.9532 53.473 75.4331 52.9631C75.943 52.5132 76.1979 51.9134 76.1979 51.1635C76.1979 50.4437 75.943 49.8288 75.4331 49.319C74.9232 48.8091 74.3083 48.5541 73.5885 48.5541H64.9505V53.728ZM64.9505 62.9509H73.5885C74.2784 62.9509 74.8932 62.7109 75.4331 62.231C75.943 61.6612 76.1979 61.0463 76.1979 60.3865C76.1979 59.6666 75.943 59.0518 75.4331 58.5419C74.9232 58.032 74.3083 57.777 73.5885 57.777H64.9505V62.9509Z" fill="white"/>
<path d="M105.663 67H101.614V50.8036L89.4664 67H85.4173V44.505H89.4664V61.1513L101.614 44.505H105.663V67Z" fill="white"/>
<path d="M128.892 44.505L119.489 55.7975L128.532 67H123.448L116.159 57.5971H115.125V67H111.121V44.505H115.125V53.593H116.159L123.808 44.505H128.892Z" fill="white"/>
<path d="M130.035 55.7525C130.035 52.3933 131.219 49.5289 133.589 47.1594C135.958 44.79 138.823 43.6053 142.182 43.6053C145.541 43.6053 148.405 44.79 150.775 47.1594C153.144 49.5289 154.329 52.3933 154.329 55.7525C154.329 59.1117 153.144 61.9761 150.775 64.3456C148.405 66.715 145.541 67.8998 142.182 67.8998C138.823 67.8998 135.958 66.715 133.589 64.3456C131.219 61.9761 130.035 59.1117 130.035 55.7525ZM134.084 55.7525C134.084 57.972 134.878 59.8766 136.468 61.4662C138.058 63.0559 139.962 63.8507 142.182 63.8507C144.401 63.8507 146.306 63.0559 147.896 61.4662C149.485 59.8766 150.28 57.972 150.28 55.7525C150.28 53.533 149.485 51.6284 147.896 50.0388C146.306 48.4492 144.401 47.6543 142.182 47.6543C139.962 47.6543 138.058 48.4492 136.468 50.0388C134.878 51.6284 134.084 53.533 134.084 55.7525Z" fill="white"/>
<path d="M171.96 67H159.273V44.505H171.96C173.849 44.505 175.424 45.0899 176.684 46.2597C177.973 47.4294 178.618 48.929 178.618 50.7586C178.618 53.0081 177.614 54.6727 175.604 55.7525C177.614 56.8623 178.618 58.5269 178.618 60.7464C178.618 62.576 177.973 64.0756 176.684 65.2454C175.424 66.4151 173.849 67 171.96 67ZM163.322 53.728H171.96C172.71 53.728 173.325 53.473 173.804 52.9631C174.314 52.5132 174.569 51.9134 174.569 51.1635C174.569 50.4437 174.314 49.8288 173.804 49.319C173.295 48.8091 172.68 48.5541 171.96 48.5541H163.322V53.728ZM163.322 62.9509H171.96C172.65 62.9509 173.265 62.7109 173.804 62.231C174.314 61.6612 174.569 61.0463 174.569 60.3865C174.569 59.6666 174.314 59.0518 173.804 58.5419C173.295 58.032 172.68 57.777 171.96 57.777H163.322V62.9509Z" fill="white"/>
</svg>
