<svg width="30" height="58" viewBox="0 0 30 58" fill="none" xmlns="http://www.w3.org/2000/svg">
<path d="M24.873 28.5722L0.623303 53.4929C0.423651 53.6937 0.265811 53.9322 0.158914 54.1944C0.0520175 54.4566 -0.00181467 54.7375 0.000537789 55.0206C0.00289025 55.3038 0.0613791 55.5837 0.172618 55.8441C0.283856 56.1045 0.445636 56.3403 0.648596 56.5378C0.851557 56.7353 1.09167 56.8906 1.35503 56.9946C1.6184 57.0987 1.89979 57.1495 2.18293 57.1441C2.46606 57.1388 2.74531 57.0773 3.00452 56.9632C3.26374 56.8492 3.49776 56.6849 3.69306 56.4798L29.3934 30.0656C29.7824 29.6658 30 29.13 30 28.5722C30 28.0143 29.7824 27.4785 29.3934 27.0787L3.69306 0.664502C3.49777 0.459434 3.26374 0.295136 3.00453 0.18111C2.74532 0.0670837 2.46606 0.00559698 2.18293 0.000206427C1.8998 -0.00518413 1.6184 0.0456278 1.35504 0.149705C1.09167 0.253782 0.851562 0.409053 0.648601 0.606538C0.445641 0.804024 0.283861 1.0398 0.172622 1.30022C0.0613838 1.56064 0.00289492 1.84054 0.000542413 2.12372C-0.0018101 2.40689 0.052022 2.68772 0.158919 2.94996C0.265815 3.21219 0.423655 3.45062 0.623307 3.65145L24.873 28.5722Z" fill="white"/>
</svg>
