<svg width="1920" height="1080" viewBox="0 0 1920 1080" fill="none" xmlns="http://www.w3.org/2000/svg">
<g clip-path="url(#clip0_297_10664)">
<rect width="1920" height="1080" fill="#1A1C21"/>
<path d="M1177.95 502.047V487.316C1177.95 487.232 1177.99 487.152 1178.05 487.092C1178.1 487.033 1178.19 487 1178.27 487H1192.7C1192.78 487 1192.86 487.032 1192.91 487.088C1192.97 487.145 1193 487.221 1193 487.301V501.861C1193 501.886 1193 501.91 1192.99 501.932C1192.98 501.955 1192.96 501.975 1192.95 501.993C1192.93 502.01 1192.91 502.024 1192.89 502.033C1192.86 502.042 1192.84 502.047 1192.81 502.047H1177.95Z" fill="white"/>
<path d="M698.768 502.167L684.286 502.23C684.249 502.23 684.211 502.222 684.177 502.208C684.142 502.194 684.11 502.172 684.084 502.146C684.057 502.119 684.036 502.088 684.022 502.053C684.007 502.018 684 501.981 684 501.944V487.409C684 487.38 684.006 487.351 684.017 487.324C684.028 487.297 684.045 487.272 684.065 487.252C684.086 487.231 684.111 487.215 684.138 487.203C684.165 487.192 684.194 487.186 684.223 487.186L698.794 487.164C698.844 487.164 698.891 487.184 698.926 487.22C698.961 487.255 698.98 487.303 698.98 487.354L699.073 501.594C699.073 501.667 699.087 501.74 699.115 501.807C699.143 501.875 699.184 501.936 699.235 501.987C699.287 502.039 699.348 502.079 699.415 502.107C699.482 502.135 699.554 502.148 699.627 502.148C719.055 501.999 738.12 502.013 756.82 502.189C757.568 502.196 758.257 502.157 758.886 502.07C758.93 502.064 758.974 502.068 759.016 502.08C759.058 502.093 759.097 502.114 759.13 502.143C759.163 502.172 759.189 502.208 759.208 502.248C759.226 502.287 759.235 502.331 759.235 502.375V516.98C759.235 517.035 759.213 517.088 759.174 517.127C759.135 517.166 759.083 517.188 759.027 517.188L738.355 517.21C738.307 517.21 738.261 517.23 738.227 517.265C738.192 517.301 738.173 517.349 738.173 517.399L738.058 592.122C738.058 592.177 738.036 592.23 737.996 592.269C737.956 592.308 737.902 592.33 737.846 592.33H723.342C723.279 592.33 723.218 592.305 723.173 592.259C723.129 592.214 723.104 592.153 723.104 592.089L722.989 517.396C722.989 517.346 722.969 517.299 722.934 517.264C722.899 517.229 722.852 517.21 722.803 517.21L699.255 517.188C699.2 517.188 699.147 517.166 699.108 517.127C699.069 517.088 699.047 517.035 699.047 516.98V502.441C699.047 502.369 699.018 502.299 698.965 502.247C698.913 502.196 698.842 502.167 698.768 502.167Z" fill="white"/>
<path d="M1087.46 554.735L1057.88 554.713C1057.85 554.713 1057.83 554.718 1057.8 554.729C1057.77 554.739 1057.75 554.754 1057.73 554.774C1057.71 554.793 1057.7 554.816 1057.69 554.841C1057.68 554.867 1057.67 554.894 1057.67 554.921V592.145C1057.67 592.194 1057.65 592.241 1057.62 592.276C1057.58 592.311 1057.53 592.331 1057.49 592.331L1042.84 592.308C1042.79 592.308 1042.74 592.289 1042.7 592.254C1042.67 592.219 1042.65 592.172 1042.65 592.123C1042.57 586.359 1042.53 577.852 1042.53 566.602C1042.54 533.54 1042.56 512.108 1042.6 502.304C1042.6 502.255 1042.62 502.207 1042.66 502.172C1042.69 502.136 1042.74 502.116 1042.79 502.115C1063.41 501.922 1082.8 501.899 1100.95 502.048C1101.63 502.053 1102.18 502.036 1102.6 501.996C1102.63 501.994 1102.65 501.997 1102.67 502.004C1102.7 502.012 1102.72 502.024 1102.74 502.039C1102.75 502.055 1102.77 502.074 1102.78 502.096C1102.79 502.117 1102.79 502.14 1102.79 502.163L1102.74 592.074C1102.74 592.124 1102.72 592.173 1102.69 592.208C1102.65 592.244 1102.61 592.264 1102.56 592.264L1087.87 592.327C1087.85 592.327 1087.82 592.323 1087.8 592.313C1087.77 592.303 1087.75 592.288 1087.73 592.269C1087.71 592.251 1087.7 592.228 1087.69 592.204C1087.68 592.179 1087.67 592.153 1087.67 592.126L1087.65 554.921C1087.65 554.872 1087.63 554.824 1087.59 554.79C1087.56 554.755 1087.51 554.735 1087.46 554.735ZM1087.68 517.296C1087.68 517.243 1087.66 517.192 1087.62 517.154C1087.58 517.116 1087.53 517.095 1087.48 517.095H1057.87C1057.82 517.095 1057.77 517.116 1057.73 517.154C1057.69 517.192 1057.67 517.243 1057.67 517.296V539.372C1057.67 539.426 1057.69 539.477 1057.73 539.514C1057.77 539.552 1057.82 539.573 1057.87 539.573H1087.48C1087.53 539.573 1087.58 539.552 1087.62 539.514C1087.66 539.477 1087.68 539.426 1087.68 539.372V517.296Z" fill="white"/>
<path d="M1177.95 502.047V516.878C1177.95 516.936 1177.93 516.99 1177.89 517.031C1177.85 517.071 1177.8 517.094 1177.74 517.094H1133.11C1133.06 517.094 1133.01 517.116 1132.97 517.155C1132.93 517.194 1132.91 517.247 1132.91 517.302V539.364C1132.91 539.419 1132.93 539.472 1132.97 539.511C1133.01 539.55 1133.06 539.572 1133.11 539.572H1177.77C1177.79 539.572 1177.82 539.576 1177.84 539.586C1177.86 539.595 1177.88 539.609 1177.9 539.626C1177.92 539.643 1177.93 539.664 1177.94 539.686C1177.95 539.709 1177.95 539.733 1177.95 539.757V592.144C1177.95 592.168 1177.95 592.192 1177.94 592.215C1177.93 592.237 1177.92 592.258 1177.9 592.275C1177.88 592.292 1177.86 592.306 1177.84 592.315C1177.82 592.325 1177.79 592.329 1177.77 592.329H1117.95C1117.9 592.329 1117.85 592.31 1117.82 592.275C1117.79 592.24 1117.77 592.193 1117.77 592.144V502.147C1117.77 502.121 1117.78 502.095 1117.8 502.076C1117.81 502.057 1117.84 502.047 1117.87 502.047H1177.95ZM1162.9 554.808C1162.9 554.783 1162.89 554.758 1162.87 554.74C1162.86 554.722 1162.83 554.712 1162.81 554.712H1133C1132.98 554.712 1132.95 554.722 1132.93 554.74C1132.92 554.758 1132.91 554.783 1132.91 554.808V577.093C1132.91 577.118 1132.92 577.143 1132.93 577.161C1132.95 577.179 1132.98 577.189 1133 577.189H1162.81C1162.83 577.189 1162.86 577.179 1162.87 577.161C1162.89 577.143 1162.9 577.118 1162.9 577.093V554.808Z" fill="white"/>
<path d="M819.117 554.827L789.536 554.805C789.48 554.805 789.427 554.826 789.388 554.865C789.349 554.904 789.327 554.957 789.327 555.013V592.099C789.327 592.185 789.293 592.267 789.233 592.328C789.172 592.388 789.09 592.422 789.004 592.422C784.427 592.422 779.805 592.422 775.139 592.422C775.116 592.422 774.979 592.431 774.726 592.448C774.315 592.478 774.149 592.312 774.228 591.95C774.256 591.824 774.259 591.704 774.24 591.59C774.205 591.372 774.188 591.061 774.188 590.657C774.188 561.368 774.188 531.933 774.188 502.352C774.188 502.271 774.22 502.193 774.277 502.136C774.334 502.079 774.411 502.047 774.492 502.047L834.164 502.069C834.214 502.069 834.263 502.089 834.298 502.124C834.334 502.158 834.354 502.206 834.354 502.255L834.376 592.214C834.376 592.269 834.354 592.322 834.315 592.361C834.276 592.4 834.223 592.422 834.168 592.422H819.585C819.517 592.422 819.452 592.395 819.404 592.347C819.356 592.299 819.329 592.234 819.329 592.166L819.306 555.013C819.306 554.963 819.286 554.916 819.251 554.881C819.215 554.846 819.167 554.827 819.117 554.827ZM819.332 517.283C819.332 517.258 819.322 517.233 819.304 517.215C819.286 517.197 819.261 517.187 819.236 517.187H789.424C789.398 517.187 789.374 517.197 789.356 517.215C789.338 517.233 789.327 517.258 789.327 517.283V539.568C789.327 539.594 789.338 539.618 789.356 539.636C789.374 539.654 789.398 539.665 789.424 539.665H819.236C819.261 539.665 819.286 539.654 819.304 539.636C819.322 539.618 819.332 539.594 819.332 539.568V517.283Z" fill="white"/>
<path d="M864.495 517.395L864.473 539.427C864.473 539.49 864.498 539.55 864.543 539.595C864.587 539.64 864.648 539.665 864.711 539.665H909.402C909.458 539.665 909.512 539.686 909.552 539.726C909.592 539.765 909.614 539.817 909.614 539.873L909.592 592.214C909.592 592.263 909.572 592.311 909.536 592.346C909.501 592.38 909.453 592.4 909.402 592.4L849.73 592.422C849.65 592.422 849.572 592.39 849.515 592.333C849.458 592.276 849.426 592.198 849.426 592.118V502.303C849.426 502.27 849.432 502.236 849.445 502.205C849.458 502.174 849.477 502.146 849.501 502.122C849.525 502.098 849.553 502.079 849.584 502.066C849.615 502.054 849.648 502.047 849.682 502.047H909.406C909.461 502.047 909.514 502.069 909.553 502.108C909.592 502.147 909.614 502.2 909.614 502.255V516.908C909.614 516.933 909.609 516.957 909.6 516.979C909.591 517.002 909.577 517.022 909.56 517.04C909.542 517.057 909.522 517.07 909.499 517.08C909.477 517.089 909.453 517.094 909.428 517.094L864.685 517.209C864.634 517.21 864.586 517.23 864.55 517.265C864.515 517.3 864.495 517.346 864.495 517.395ZM894.567 554.975C894.567 554.953 894.563 554.931 894.554 554.91C894.545 554.889 894.533 554.87 894.517 554.855C894.501 554.839 894.482 554.826 894.462 554.818C894.441 554.809 894.419 554.805 894.396 554.805H864.644C864.598 554.805 864.555 554.823 864.523 554.855C864.491 554.887 864.473 554.93 864.473 554.975V577.111C864.473 577.157 864.491 577.2 864.523 577.232C864.555 577.264 864.598 577.282 864.644 577.282H894.396C894.419 577.282 894.441 577.278 894.462 577.269C894.482 577.261 894.501 577.248 894.517 577.232C894.533 577.216 894.545 577.198 894.554 577.177C894.563 577.156 894.567 577.134 894.567 577.111V554.975Z" fill="white"/>
<path d="M991.143 517.116L967.598 517.072C967.548 517.072 967.5 517.052 967.464 517.016C967.429 516.981 967.409 516.932 967.409 516.882L967.387 502.233C967.387 502.183 967.406 502.136 967.441 502.101C967.476 502.066 967.523 502.047 967.572 502.047H1027.25C1027.34 502.047 1027.42 502.081 1027.48 502.142C1027.54 502.202 1027.58 502.284 1027.58 502.37L1027.55 516.882C1027.55 516.932 1027.53 516.981 1027.5 517.016C1027.47 517.052 1027.42 517.072 1027.37 517.072L1006.75 517.094C1006.68 517.094 1006.61 517.121 1006.57 517.169C1006.52 517.217 1006.49 517.282 1006.49 517.35V592.121C1006.49 592.149 1006.49 592.176 1006.47 592.201C1006.46 592.226 1006.45 592.249 1006.43 592.268C1006.41 592.288 1006.39 592.303 1006.36 592.314C1006.34 592.324 1006.31 592.329 1006.28 592.329H991.566C991.515 592.329 991.466 592.309 991.429 592.273C991.393 592.237 991.373 592.187 991.373 592.136L991.328 517.298C991.328 517.25 991.309 517.204 991.274 517.17C991.239 517.135 991.192 517.116 991.143 517.116Z" fill="white"/>
<path d="M954.635 539.664H939.826C939.76 539.664 939.707 539.717 939.707 539.783V554.592C939.707 554.658 939.76 554.711 939.826 554.711H954.635C954.701 554.711 954.754 554.658 954.754 554.592V539.783C954.754 539.717 954.701 539.664 954.635 539.664Z" fill="#7869AF"/>
<rect x="1789.22" y="-26" width="360.486" height="371.167" fill="white"/>
<rect x="1428.73" y="345.168" width="360.486" height="371.167" fill="#7867B1"/>
<rect x="1789" y="716" width="361" height="364" fill="#A498CC"/>
<g opacity="0.4" filter="url(#filter0_f_297_10664)">
<circle cx="1931.5" cy="378.5" r="572.5" fill="#AD00FF" fill-opacity="0.35"/>
</g>
<g style="mix-blend-mode:soft-light" filter="url(#filter1_f_297_10664)">
<circle cx="448.5" cy="715.5" r="804.5" fill="#1D4CA7" fill-opacity="0.37"/>
</g>
</g>
<defs>
<filter id="filter0_f_297_10664" x="959" y="-594" width="1945" height="1945" filterUnits="userSpaceOnUse" color-interpolation-filters="sRGB">
<feFlood flood-opacity="0" result="BackgroundImageFix"/>
<feBlend mode="normal" in="SourceGraphic" in2="BackgroundImageFix" result="shape"/>
<feGaussianBlur stdDeviation="200" result="effect1_foregroundBlur_297_10664"/>
</filter>
<filter id="filter1_f_297_10664" x="-1027.82" y="-760.816" width="2952.63" height="2952.63" filterUnits="userSpaceOnUse" color-interpolation-filters="sRGB">
<feFlood flood-opacity="0" result="BackgroundImageFix"/>
<feBlend mode="normal" in="SourceGraphic" in2="BackgroundImageFix" result="shape"/>
<feGaussianBlur stdDeviation="335.908" result="effect1_foregroundBlur_297_10664"/>
</filter>
<clipPath id="clip0_297_10664">
<rect width="1920" height="1080" fill="white"/>
</clipPath>
</defs>
</svg>
