<svg width="150" height="150" viewBox="0 0 150 150" fill="none" xmlns="http://www.w3.org/2000/svg">
<path d="M75 12.5C40.5 12.5 12.5 40.5 12.5 75C12.5 109.5 40.5 137.5 75 137.5C109.5 137.5 137.5 109.5 137.5 75C137.5 40.5 109.5 12.5 75 12.5ZM104 55C103.062 64.875 99 88.875 96.9375 99.9375C96.0625 104.625 94.3125 106.188 92.6875 106.375C89.0625 106.688 86.3125 104 82.8125 101.688C77.3125 98.0625 74.1875 95.8125 68.875 92.3125C62.6875 88.25 66.6875 86 70.25 82.375C71.1875 81.4375 87.1875 66.875 87.5 65.5625C87.5434 65.3637 87.5376 65.1573 87.4832 64.9613C87.4287 64.7652 87.3272 64.5854 87.1875 64.4375C86.8125 64.125 86.3125 64.25 85.875 64.3125C85.3125 64.4375 76.5625 70.25 59.5 81.75C57 83.4375 54.75 84.3125 52.75 84.25C50.5 84.1875 46.25 83 43.0625 81.9375C39.125 80.6875 36.0625 80 36.3125 77.8125C36.4375 76.6875 38 75.5625 40.9375 74.375C59.1875 66.4375 71.3125 61.1875 77.375 58.6875C94.75 51.4375 98.3125 50.1875 100.688 50.1875C101.188 50.1875 102.375 50.3125 103.125 50.9375C103.75 51.4375 103.937 52.125 104 52.625C103.937 53 104.062 54.125 104 55Z" fill="#141414"/>
</svg>
